<?xml version="1.0" encoding="utf-8"?>
<svg xmlns="http://www.w3.org/2000/svg" id="Layer_1" version="1.1" viewBox="0 0 1800 2045">
  
  <defs>
    <style>
      .st0, .st1, .st2 {
        fill: none;
      }

      .st3 {
        fill: #ff3600;
      }

      .st4, .st5, .st6, .st7, .st8, .st9, .st10, .st11 {
        fill: #2cff05;
      }

      .st4, .st12, .st13, .st14, .st15, .st6, .st7, .st8, .st10, .st11 {
        font-family: MEKSans-Italic, 'MEK Sans';
        font-style: italic;
      }

      .st4, .st15 {
        letter-spacing: .2em;
      }

      .st5, .st16 {
        font-family: MEKSans-Regular, 'MEK Sans';
      }

      .st12 {
        letter-spacing: 0em;
      }

      .st12, .st16, .st17, .st13, .st14, .st15 {
        fill: #fff;
      }

      .st18 {
        fill: blue;
      }

      .st19 {
        fill: #141414;
      }

      .st20 {
        font-size: 97.1px;
      }

      .st21 {
        fill: #ffed00;
      }

      .st13 {
        letter-spacing: -.3em;
      }

      .st14, .st10 {
        letter-spacing: -.2em;
      }

      .st6 {
        letter-spacing: -.2em;
      }

      .st7 {
        letter-spacing: -.2em;
      }

      .st8 {
        letter-spacing: -.2em;
      }

      .st11 {
        letter-spacing: -.2em;
      }

      .st22 {
        clip-path: url(#clippath);
      }

      .st1 {
        stroke-width: 2.1px;
      }

      .st1, .st2 {
        stroke: #fff;
        stroke-miterlimit: 10;
      }

      .st2 {
        stroke-width: 2.2px;
      }
    </style>
    <clipPath id="clippath">
      <rect class="st0" height="107.8" width="1700" x="50" y="321.4"/>
    </clipPath>
  </defs>
  <rect class="st19" height="2230.8" width="1824.5" x="-12.3" y="-11.6"/>
  <rect class="st3" height="107.8" width="1700" x="50" y="321.4"/>
  <g class="st22">
    <g>
      <path class="st9" d="M9,350.1h-25.8v19.4H2.5v6.5h-25.8v19.4H2.5v6.5h-38.7v-25.8h6.5v-32.3H9v6.5Z"/>
      <path class="st9" d="M51.3,350.1h-25.8v19.4h19.4v6.5h-25.8v19.4h25.8v6.5H6.1v-25.8h6.5v-32.3h38.7v6.5Z"/>
      <path class="st9" d="M93.6,343.6v12.9h-6.5v6.5h-6.5v6.5h6.5v32.3h-12.9v-32.3h-6.5v6.5h-6.5v25.8h-12.9v-25.8h6.5v-32.3h12.9v19.4h6.5v-6.5h6.5v-12.9h12.9Z"/>
      <path class="st9" d="M154.5,350.1h6.5v25.8h-6.5v19.4h-6.5v6.5h-25.8v-6.5h-6.5v-19.4h6.5v-25.8h6.5v-6.5h25.8v6.5ZM148.1,375.9v-25.8h-12.9v25.8h-6.5v19.4h12.9v-19.4h6.5Z"/>
      <path class="st9" d="M180.4,350.1h6.5v6.5h-6.5v19.4h-6.5v25.8h-12.9v-25.8h6.5v-32.3h12.9v6.5ZM206.2,343.6v32.3h-6.5v25.8h-12.9v-25.8h6.5v-12.9h-6.5v-6.5h6.5v-12.9h12.9Z"/>
      <path class="st9" d="M251.4,350.1h-25.8v19.4h19.4v6.5h-25.8v19.4h25.8v6.5h-38.7v-25.8h6.5v-32.3h38.7v6.5Z"/>
      <path class="st9" d="M298.2,379.1h-25.8v-6.5h25.8v6.5Z"/>
      <path class="st9" d="M334.9,388.8h6.5v6.5h-6.5v6.5h-12.9v-25.8h6.5v-32.3h12.9v32.3h-6.5v12.9ZM347.8,375.9v12.9h-6.5v-12.9h6.5ZM373.6,343.6v32.3h-6.5v25.8h-12.9v-6.5h-6.5v-6.5h6.5v-12.9h6.5v-32.3h12.9Z"/>
      <path class="st9" d="M418.8,350.1h-25.8v19.4h19.4v6.5h-25.8v19.4h25.8v6.5h-38.7v-25.8h6.5v-32.3h38.7v6.5Z"/>
      <path class="st9" d="M461.2,350.1h-25.8v19.4h19.4v6.5h-25.8v19.4h25.8v6.5h-38.7v-25.8h6.5v-32.3h38.7v6.5Z"/>
      <path class="st9" d="M503.5,343.6v12.9h-6.5v6.5h-6.5v6.5h6.5v32.3h-12.9v-32.3h-6.5v6.5h-6.5v25.8h-12.9v-25.8h6.5v-32.3h12.9v19.4h6.5v-6.5h6.5v-12.9h12.9Z"/>
      <path class="st9" d="M564.4,350.1h6.5v25.8h-6.5v19.4h-6.5v6.5h-25.8v-6.5h-6.5v-19.4h6.5v-25.8h6.5v-6.5h25.8v6.5ZM557.9,375.9v-25.8h-12.9v25.8h-6.5v19.4h12.9v-19.4h6.5Z"/>
      <path class="st9" d="M590.2,350.1h6.5v6.5h-6.5v19.4h-6.5v25.8h-12.9v-25.8h6.5v-32.3h12.9v6.5ZM616,343.6v32.3h-6.5v25.8h-12.9v-25.8h6.5v-12.9h-6.5v-6.5h6.5v-12.9h12.9Z"/>
      <path class="st9" d="M661.3,350.1h-25.8v19.4h19.4v6.5h-25.8v19.4h25.8v6.5h-38.7v-25.8h6.5v-32.3h38.7v6.5Z"/>
      <path class="st9" d="M708,379.1h-25.8v-6.5h25.8v6.5Z"/>
      <path class="st9" d="M744.7,388.8h6.5v6.5h-6.5v6.5h-12.9v-25.8h6.5v-32.3h12.9v32.3h-6.5v12.9ZM757.6,375.9v12.9h-6.5v-12.9h6.5ZM783.5,343.6v32.3h-6.5v25.8h-12.9v-6.5h-6.5v-6.5h6.5v-12.9h6.5v-32.3h12.9Z"/>
      <path class="st9" d="M828.7,350.1h-25.8v19.4h19.4v6.5h-25.8v19.4h25.8v6.5h-38.7v-25.8h6.5v-32.3h38.7v6.5Z"/>
      <path class="st9" d="M871,350.1h-25.8v19.4h19.4v6.5h-25.8v19.4h25.8v6.5h-38.7v-25.8h6.5v-32.3h38.7v6.5Z"/>
      <path class="st9" d="M913.3,343.6v12.9h-6.5v6.5h-6.5v6.5h6.5v32.3h-12.9v-32.3h-6.5v6.5h-6.5v25.8h-12.9v-25.8h6.5v-32.3h12.9v19.4h6.5v-6.5h6.5v-12.9h12.9Z"/>
      <path class="st9" d="M974.2,350.1h6.5v25.8h-6.5v19.4h-6.5v6.5h-25.8v-6.5h-6.5v-19.4h6.5v-25.8h6.5v-6.5h25.8v6.5ZM967.8,375.9v-25.8h-12.9v25.8h-6.5v19.4h12.9v-19.4h6.5Z"/>
      <path class="st9" d="M1000.1,350.1h6.5v6.5h-6.5v19.4h-6.5v25.8h-12.9v-25.8h6.5v-32.3h12.9v6.5ZM1025.9,343.6v32.3h-6.5v25.8h-12.9v-25.8h6.5v-12.9h-6.5v-6.5h6.5v-12.9h12.9Z"/>
      <path class="st9" d="M1071.1,350.1h-25.8v19.4h19.4v6.5h-25.8v19.4h25.8v6.5h-38.7v-25.8h6.5v-32.3h38.7v6.5Z"/>
      <path class="st9" d="M1117.8,379.1h-25.8v-6.5h25.8v6.5Z"/>
      <path class="st9" d="M1154.6,388.8h6.5v6.5h-6.5v6.5h-12.9v-25.8h6.5v-32.3h12.9v32.3h-6.5v12.9ZM1167.5,375.9v12.9h-6.5v-12.9h6.5ZM1193.3,343.6v32.3h-6.5v25.8h-12.9v-6.5h-6.5v-6.5h6.5v-12.9h6.5v-32.3h12.9Z"/>
      <path class="st9" d="M1238.5,350.1h-25.8v19.4h19.4v6.5h-25.8v19.4h25.8v6.5h-38.7v-25.8h6.5v-32.3h38.7v6.5Z"/>
      <path class="st9" d="M1280.8,350.1h-25.8v19.4h19.4v6.5h-25.8v19.4h25.8v6.5h-38.7v-25.8h6.5v-32.3h38.7v6.5Z"/>
      <path class="st9" d="M1323.1,343.6v12.9h-6.5v6.5h-6.5v6.5h6.5v32.3h-12.9v-32.3h-6.5v6.5h-6.5v25.8h-12.9v-25.8h6.5v-32.3h12.9v19.4h6.5v-6.5h6.5v-12.9h12.9Z"/>
      <path class="st9" d="M1384.1,350.1h6.5v25.8h-6.5v19.4h-6.5v6.5h-25.8v-6.5h-6.5v-19.4h6.5v-25.8h6.5v-6.5h25.8v6.5ZM1377.6,375.9v-25.8h-12.9v25.8h-6.5v19.4h12.9v-19.4h6.5Z"/>
      <path class="st9" d="M1409.9,350.1h6.5v6.5h-6.5v19.4h-6.5v25.8h-12.9v-25.8h6.5v-32.3h12.9v6.5ZM1435.7,343.6v32.3h-6.5v25.8h-12.9v-25.8h6.5v-12.9h-6.5v-6.5h6.5v-12.9h12.9Z"/>
      <path class="st9" d="M1480.9,350.1h-25.8v19.4h19.4v6.5h-25.8v19.4h25.8v6.5h-38.7v-25.8h6.5v-32.3h38.7v6.5Z"/>
      <path class="st9" d="M1527.7,379.1h-25.8v-6.5h25.8v6.5Z"/>
      <path class="st9" d="M1564.4,388.8h6.5v6.5h-6.5v6.5h-12.9v-25.8h6.5v-32.3h12.9v32.3h-6.5v12.9ZM1577.3,375.9v12.9h-6.5v-12.9h6.5ZM1603.1,343.6v32.3h-6.5v25.8h-12.9v-6.5h-6.5v-6.5h6.5v-12.9h6.5v-32.3h12.9Z"/>
      <path class="st9" d="M1648.4,350.1h-25.8v19.4h19.4v6.5h-25.8v19.4h25.8v6.5h-38.7v-25.8h6.5v-32.3h38.7v6.5Z"/>
      <path class="st9" d="M1690.7,350.1h-25.8v19.4h19.4v6.5h-25.8v19.4h25.8v6.5h-38.7v-25.8h6.5v-32.3h38.7v6.5Z"/>
      <path class="st9" d="M1733,343.6v12.9h-6.5v6.5h-6.5v6.5h6.5v32.3h-12.9v-32.3h-6.5v6.5h-6.5v25.8h-12.9v-25.8h6.5v-32.3h12.9v19.4h6.5v-6.5h6.5v-12.9h12.9Z"/>
      <path class="st9" d="M1793.9,350.1h6.5v25.8h-6.5v19.4h-6.5v6.5h-25.8v-6.5h-6.5v-19.4h6.5v-25.8h6.5v-6.5h25.8v6.5ZM1787.4,375.9v-25.8h-12.9v25.8h-6.5v19.4h12.9v-19.4h6.5Z"/>
    </g>
  </g>
  <g>
    <polygon class="st9" points="223.3 148.9 223.3 99.5 198.6 99.5 198.6 74.4 173.9 74.4 173.9 49.7 124.3 49.7 124.3 74.4 99.8 74.4 99.8 99.5 75.1 99.5 75.1 173.2 99.8 173.2 99.8 198.3 124.5 198.3 124.5 222.6 149.2 222.6 149.2 272.4 99.8 272.4 99.8 247.3 75.1 247.3 75.1 222.6 50 222.6 50 272.4 75.1 272.4 75.1 296.7 99.6 296.7 99.6 321.4 124.3 321.4 149 321.4 149 296.7 173.5 296.7 173.5 272.4 198.6 272.4 198.6 198.3 173.5 198.3 173.5 173.2 149.2 173.2 149.2 148.9 124.5 148.9 124.5 99.5 173.5 99.5 173.5 123.8 198.6 123.8 198.6 148.9 223.3 148.9"/>
    <path class="st9" d="M668.1,272h-49.4v-74.1h24.7v-98.8h49.4v24.7h49.4v-24.7h-24.7v-24.7h-98.8v24.7h-24.7v98.8h-24.7v-98.8h-24.7v-24.7h-98.8v24.7h-24.7v98.8h-24.7v-123.5h-49.8v98.8h-49v-98.8h-49.4v123.9h-25.1v98.4h49.8v-98.4h49.4v98.4h49.4v-98.4h24.7v98.4h49.4v-98.8h49.4v98.8h49.4v-98.8h24.7v74.1h24.7v24.7h98.8v-24.7h24.7v-24.7h-49.4v24.7ZM520,173.2h-49.4v-74.1h49.4v74.1Z"/>
    <polygon class="st9" points="915.1 74.4 865.7 74.4 865.7 123.8 841 123.8 841 148.5 816.3 148.5 816.3 74.4 766.9 74.4 766.9 197.9 742.2 197.9 742.2 296.7 791.6 296.7 791.6 197.9 816.3 197.9 816.3 173.2 841 173.2 841 296.7 890.4 296.7 890.4 173.2 865.7 173.2 865.7 148.5 890.4 148.5 890.4 123.8 915.1 123.8 915.1 74.4"/>
    <path class="st9" d="M1651.2,99.1v-24.7h-49.4v123.5h-24.7v-98.8h-24.7v-24.7h-98.8v24.7h-24.7v98.8h-24.7v-123.5h-49.8v98.8h-49v-98.8h-49.4v.4h-168.1v24.3h-24.7v-24.7h-98.8v24.7h-24.7v98.8h-24.7v98.8h49.4v-98.8h49.4v98.8h49.4v-98.8h24.7v-98.4h49.4v98.4h-24.7v98.8h49.4v-98.8h24.7v-98.4h69.3v98.8h-25.1v98.4h49.8v-98.4h49.4v98.4h49.4v-98.4h24.7v73.7h24.7v24.7h98.8v-24.7h24.7v-74.1h24.7v98.8h49.4v-98.8h24.7v-74.1h24.7v-24.7h-24.7ZM1038.6,173.2h-49.4v-74.1h49.4v74.1ZM1527.7,197.9h-24.7v74.1h-49.4v-74.1h24.7v-98.8h49.4v98.8Z"/>
    <polygon class="st9" points="1700.6 74.4 1700.6 123.8 1675.9 123.8 1675.9 148.5 1700.6 148.5 1700.6 197.9 1675.9 197.9 1675.9 296.7 1725.3 296.7 1725.3 197.9 1750 197.9 1750 74.4 1700.6 74.4"/>
  </g>
  <line class="st2" x1="50" x2="1750" y1="321.4" y2="321.4"/>
  <rect class="st1" height="1945.6" width="1700" x="50" y="49.7"/>
  <g>
    <text class="st20" transform="translate(493.8 830.7)">
      <tspan class="st5" x="0" y="0">#1</tspan>
      <tspan class="st7" x="84.6" y="0">	</tspan>
      <tspan class="st4" x="99.9" y="0">		</tspan>
      <tspan class="st16" x="199.8" y="0">XXXXXXXX</tspan>
      <tspan class="st12" x="614.8" y="0">	</tspan>
      <tspan class="st15" x="649.4" y="0">			</tspan>
      <tspan class="st5" x="0" y="136">#2</tspan>
      <tspan class="st14" x="89.9" y="136">	</tspan>
      <tspan class="st4" x="99.9" y="136">		</tspan>
      <tspan class="st16" x="199.8" y="136">XXXXXXXX</tspan>
      <tspan class="st5" x="0" y="272">#3</tspan>
      <tspan class="st6" x="89" y="272">	</tspan>
      <tspan class="st4" x="99.9" y="272">		</tspan>
      <tspan class="st16" x="199.8" y="272">XXXXXXXX</tspan>
      <tspan class="st5" x="0" y="408">#4</tspan>
      <tspan class="st13" x="95.4" y="408">	</tspan>
      <tspan class="st4" x="99.9" y="408">		</tspan>
      <tspan class="st16" x="199.8" y="408">XXXXXXXX</tspan>
      <tspan class="st5" x="0" y="544">#5</tspan>
      <tspan class="st8" x="88.8" y="544">	</tspan>
      <tspan class="st4" x="99.9" y="544">		</tspan>
      <tspan class="st16" x="199.8" y="544">XXXXXXXX</tspan>
      <tspan class="st5" x="0" y="680">#6</tspan>
      <tspan class="st10" x="89.9" y="680">	</tspan>
      <tspan class="st4" x="99.9" y="680">		</tspan>
      <tspan class="st16" x="199.8" y="680">XXXXXXXX</tspan>
      <tspan class="st5" x="0" y="816">#7</tspan>
      <tspan class="st6" x="89" y="816">	</tspan>
      <tspan class="st4" x="99.9" y="816">		</tspan>
      <tspan class="st16" x="199.8" y="816">XXXXXXXX</tspan>
      <tspan class="st5" x="0" y="952">#8</tspan>
      <tspan class="st11" x="91.1" y="952">	</tspan>
      <tspan class="st4" x="99.9" y="952">		</tspan>
      <tspan class="st16" x="199.8" y="952">XXXXXXXX</tspan>
    </text>
   
  </g>
  <rect class="st17" height="130.2" width="850" x="900" y="429.2"/>
  <g>
    <g>
      <path class="st17" d="M224.4,443.5h-14.6v58.3h-14.6v43.7h14.6v14.6h-58.3v-14.6h14.6v-43.7h14.6v-58.3h-14.6v-14.6h58.3v14.6Z"/>
      <path class="st17" d="M385.1,428.9v72.9h-14.6v29.1h-14.6v14.6h-14.6v14.6h-29.1v-14.6h-14.6v-14.6h-14.6v-29.1h14.6v-72.9h29.1v72.9h-14.6v29.1h29.1v-29.1h14.6v-72.9h29.1Z"/>
      <path class="st17" d="M476.9,443.5h14.6v58.3h-14.6v43.7h-14.6v14.6h-58.3v-14.6h-14.6v-43.7h14.6v-58.3h14.6v-14.6h58.3v14.6ZM462.3,501.8v-58.3h-29.1v58.3h-14.6v43.7h29.1v-43.7h14.6Z"/>
      <path class="st17" d="M597.6,443.7h-43.5v58.1h-14.6v58.3h-29.1v-58.3h14.6v-58.1h-29.1v-14.6h101.8v14.6Z"/>
      <path class="st17" d="M686.5,443.5h-58.3v43.7h43.7v14.6h-58.3v43.7h58.3v14.6h-87.4v-58.3h14.6v-72.9h87.4v14.6Z"/>
      <path class="st17" d="M771.8,443.5h14.6v58.3h-14.6v43.7h-14.6v14.6h-72.9v-58.3h14.6v-72.9h72.9v14.6ZM757.2,501.8v-58.3h-29.1v58.3h-14.6v43.7h29.1v-43.7h14.6Z"/>
    </g>
    <g>
      <path class="st19" d="M1086.5,443.5h-14.6v58.3h-14.6v43.7h14.6v14.6h-58.3v-14.6h14.6v-43.7h14.6v-58.3h-14.6v-14.6h58.3v14.6Z"/>
      <path class="st19" d="M1247.2,428.9v72.9h-14.6v29.1h-14.6v14.6h-14.6v14.6h-29.1v-14.6h-14.6v-14.6h-14.6v-29.1h14.6v-72.9h29.1v72.9h-14.6v29.1h29.1v-29.1h14.6v-72.9h29.1Z"/>
      <path class="st19" d="M1339,443.5h14.6v58.3h-14.6v43.7h-14.6v14.6h-58.3v-14.6h-14.6v-43.7h14.6v-58.3h14.6v-14.6h58.3v14.6ZM1324.4,501.8v-58.3h-29.1v58.3h-14.6v43.7h29.1v-43.7h14.6Z"/>
      <path class="st19" d="M1459.7,443.7h-43.5v58.1h-14.6v58.3h-29.1v-58.3h14.6v-58.1h-29.1v-14.6h101.8v14.6Z"/>
      <path class="st19" d="M1548.7,443.5h-58.3v43.7h43.7v14.6h-58.3v43.7h58.3v14.6h-87.4v-58.3h14.6v-72.9h87.4v14.6Z"/>
      <path class="st19" d="M1633.9,443.5h14.6v58.3h-14.6v43.7h-14.6v14.6h-72.9v-58.3h14.6v-72.9h72.9v14.6ZM1619.4,501.8v-58.3h-29.1v58.3h-14.6v43.7h29.1v-43.7h14.6Z"/>
    </g>
  </g>
  <line class="st2" x1="50" x2="1750" y1="560.1" y2="560.1"/>
  <line class="st2" x1="50" x2="1750" y1="429.2" y2="429.2"/>
  <g>
    <g>
      <g>
        <rect class="st9" height="16.6" width="16.6" x="203.5" y="612"/>
        <rect class="st9" height="16.6" width="16.6" x="236.7" y="612"/>
        <rect class="st9" height="16.6" width="16.6" x="220.1" y="628.6"/>
        <rect class="st9" height="16.6" width="16.6" x="269.9" y="612"/>
        <rect class="st9" height="16.6" width="16.6" x="253.3" y="628.6"/>
        <rect class="st9" height="16.6" width="16.6" x="137.2" y="612"/>
        <rect class="st9" height="16.6" width="16.6" x="170.4" y="612"/>
        <rect class="st9" height="16.6" width="16.6" x="153.8" y="628.6"/>
        <rect class="st9" height="16.6" width="16.6" x="104" y="612"/>
        <rect class="st9" height="16.6" width="16.6" x="137.2" y="612"/>
        <rect class="st9" height="16.6" width="16.6" x="120.6" y="628.6"/>
        <rect class="st9" height="16.6" width="16.6" x="203.5" y="612"/>
        <rect class="st9" height="16.6" width="16.6" x="186.9" y="628.6"/>
        <rect class="st9" height="16.6" width="16.6" x="303" y="612"/>
        <rect class="st9" height="16.6" width="16.6" x="286.4" y="628.6"/>
        <rect class="st9" height="16.6" width="16.6" x="336.2" y="612"/>
        <rect class="st9" height="16.6" width="16.6" x="319.6" y="628.6"/>
        <rect class="st9" height="16.6" width="16.6" x="369.4" y="612"/>
        <rect class="st9" height="16.6" width="16.6" x="352.8" y="628.6"/>
        <rect class="st9" height="16.6" width="16.6" x="402.5" y="612"/>
        <rect class="st9" height="16.6" width="16.6" x="385.9" y="628.6"/>
        <rect class="st9" height="16.6" width="16.6" x="419.1" y="628.6"/>
      </g>
      <g>
        <rect class="st9" height="16.6" width="16.6" x="435.7" y="612"/>
        <rect class="st9" height="16.6" width="16.6" x="419.1" y="628.6"/>
        <rect class="st9" height="16.6" width="16.6" x="468.8" y="612"/>
        <rect class="st9" height="16.6" width="16.6" x="452.3" y="628.6"/>
        <rect class="st9" height="16.6" width="16.6" x="502" y="612"/>
        <rect class="st9" height="16.6" width="16.6" x="485.4" y="628.6"/>
        <rect class="st9" height="16.6" width="16.6" x="535.2" y="612"/>
        <rect class="st9" height="16.6" width="16.6" x="518.6" y="628.6"/>
        <rect class="st9" height="16.6" width="16.6" x="568.3" y="612"/>
        <rect class="st9" height="16.6" width="16.6" x="551.8" y="628.6"/>
        <rect class="st9" height="16.6" width="16.6" x="601.5" y="612"/>
        <rect class="st9" height="16.6" width="16.6" x="584.9" y="628.6"/>
        <rect class="st9" height="16.6" width="16.6" x="634.7" y="612"/>
        <rect class="st9" height="16.6" width="16.6" x="618.1" y="628.6"/>
        <rect class="st9" height="16.6" width="16.6" x="667.8" y="612"/>
        <rect class="st9" height="16.6" width="16.6" x="651.3" y="628.6"/>
        <rect class="st9" height="16.6" width="16.6" x="684.4" y="628.6"/>
      </g>
    </g>
    <g>
      <g>
        <rect class="st18" height="16.6" width="16.6" x="1099" y="612"/>
        <rect class="st18" height="16.6" width="16.6" x="1132.2" y="612"/>
        <rect class="st18" height="16.6" width="16.6" x="1115.6" y="628.6"/>
        <rect class="st18" height="16.6" width="16.6" x="1165.3" y="612"/>
        <rect class="st18" height="16.6" width="16.6" x="1148.7" y="628.6"/>
        <rect class="st18" height="16.6" width="16.6" x="1198.5" y="612"/>
        <rect class="st18" height="16.6" width="16.6" x="1181.9" y="628.6"/>
        <rect class="st18" height="16.6" width="16.6" x="1231.7" y="612"/>
        <rect class="st18" height="16.6" width="16.6" x="1215.1" y="628.6"/>
        <rect class="st18" height="16.6" width="16.6" x="1264.8" y="612"/>
        <rect class="st18" height="16.6" width="16.6" x="1248.2" y="628.6"/>
        <rect class="st18" height="16.6" width="16.6" x="1298" y="612"/>
        <rect class="st18" height="16.6" width="16.6" x="1281.4" y="628.6"/>
        <rect class="st18" height="16.6" width="16.6" x="1314.6" y="628.6"/>
      </g>
      <g>
        <rect class="st18" height="16.6" width="16.6" x="1331.2" y="612"/>
        <rect class="st18" height="16.6" width="16.6" x="1314.6" y="628.6"/>
        <rect class="st18" height="16.6" width="16.6" x="1364.3" y="612"/>
        <rect class="st18" height="16.6" width="16.6" x="1347.7" y="628.6"/>
        <rect class="st18" height="16.6" width="16.6" x="1397.5" y="612"/>
        <rect class="st18" height="16.6" width="16.6" x="1380.9" y="628.6"/>
        <rect class="st18" height="16.6" width="16.6" x="1430.6" y="612"/>
        <rect class="st18" height="16.6" width="16.6" x="1414.1" y="628.6"/>
        <rect class="st18" height="16.6" width="16.6" x="1463.8" y="612"/>
        <rect class="st18" height="16.6" width="16.6" x="1447.2" y="628.6"/>
        <rect class="st18" height="16.6" width="16.6" x="1497" y="612"/>
        <rect class="st18" height="16.6" width="16.6" x="1480.4" y="628.6"/>
        <rect class="st18" height="16.6" width="16.6" x="1530.1" y="612"/>
        <rect class="st18" height="16.6" width="16.6" x="1513.6" y="628.6"/>
        <rect class="st18" height="16.6" width="16.6" x="1563.3" y="612"/>
        <rect class="st18" height="16.6" width="16.6" x="1546.7" y="628.6"/>
        <rect class="st18" height="16.6" width="16.6" x="1579.9" y="628.6"/>
        <rect class="st18" height="16.6" width="16.6" x="1596.5" y="612"/>
        <rect class="st18" height="16.6" width="16.6" x="1579.9" y="628.6"/>
        <rect class="st18" height="16.6" width="16.6" x="1629.6" y="612"/>
        <rect class="st18" height="16.6" width="16.6" x="1613.1" y="628.6"/>
        <rect class="st18" height="16.6" width="16.6" x="1662.8" y="612"/>
        <rect class="st18" height="16.6" width="16.6" x="1646.2" y="628.6"/>
        <rect class="st18" height="16.6" width="16.6" x="1679.4" y="628.6"/>
      </g>
    </g>
    <g>
      <path class="st9" d="M714.3,615.3v3.3h-6.6v-3.3h-6.6v-3.3h19.9v3.3h-6.6ZM714.3,621.9v-3.3h6.6v10h-3.3v-3.3h-6.6v3.3h-6.6v-3.3h-3.3v-6.6h6.6v3.3h6.6ZM711,628.6h6.6v3.3h3.3v6.6h-6.6v-3.3h-6.6v3.3h-6.6v-9.9h3.3v3.3h6.6v-3.3ZM707.6,638.5h6.6v3.3h6.6v3.3h-19.9v-3.3h6.6v-3.3Z"/>
      <path class="st9" d="M740.8,638.5h-3.3v3.3h-3.3v3.3h-13.3v-33.2h6.6v3.3h-3.3v3.3h3.3v-3.3h3.3v-3.3h9.9v26.5ZM737.5,621.9v-3.3h-3.3v3.3h-3.3v3.3h-3.3v3.3h-3.3v3.3h6.6v3.3h-3.3v3.3h-3.3v3.3h3.3v-3.3h3.3v-3.3h3.3v-3.3h3.3v-3.3h-6.6v-3.3h3.3v-3.3h3.3ZM740.8,645.2h-3.3v-3.3h3.3v3.3Z"/>
      <path class="st9" d="M757.4,612h3.3v6.6h-6.6v3.3h6.6v10h-6.6v3.3h6.6v9.9h-19.9v-3.3h6.6v-3.3h-6.6v-9.9h6.6v-3.3h-6.6v-9.9h6.6v-3.3h3.3v3.3h6.6v-3.3ZM750.8,618.6h-6.6v3.3h6.6v-3.3ZM750.8,631.9h-6.6v3.3h6.6v-3.3ZM757.4,625.3h-6.6v3.3h6.6v-3.3ZM757.4,638.5h-6.6v3.3h6.6v-3.3Z"/>
      <path class="st9" d="M780.6,618.6h-3.3v-3.3h-3.3v3.3h-9.9v10h3.3v3.3h3.3v-6.6h3.3v16.6h3.3v-16.6h-3.3v-3.3h6.6v23.2h-19.9v-33.2h19.9v6.6Z"/>
      <path class="st9" d="M800.5,645.2h-19.9v-33.2h19.9v33.2ZM797.2,615.3h-13.3v6.6h3.3v3.3h-3.3v6.6h3.3v3.3h-3.3v6.6h13.3v-6.6h-3.3v-3.3h3.3v-6.6h-3.3v-3.3h3.3v-6.6ZM793.9,618.6v3.3h-6.6v-3.3h6.6ZM793.9,625.3v6.6h-6.6v-6.6h6.6ZM787.2,635.2h6.6v3.3h-6.6v-3.3Z"/>
      <path class="st3" d="M840.3,645.2h-3.3v-3.3h-3.3v-3.3h-6.6v3.3h-3.3v3.3h-3.3v-33.2h19.9v33.2ZM837,618.6h-3.3v-3.3h-6.6v3.3h-3.3v6.6h3.3v3.3h6.6v-3.3h3.3v-6.6Z"/>
      <path class="st3" d="M860.2,638.5h-3.3v3.3h-3.3v3.3h-13.3v-33.2h6.6v3.3h-3.3v3.3h3.3v-3.3h3.3v-3.3h9.9v26.5ZM856.9,621.9v-3.3h-3.3v3.3h-3.3v3.3h-3.3v3.3h-3.3v3.3h6.6v3.3h-3.3v3.3h-3.3v3.3h3.3v-3.3h3.3v-3.3h3.3v-3.3h3.3v-3.3h-6.6v-3.3h3.3v-3.3h3.3ZM860.2,645.2h-3.3v-3.3h3.3v3.3Z"/>
      <path class="st21" d="M900,645.2h-3.3v-3.3h-3.3v-3.3h-6.6v3.3h-3.3v3.3h-3.3v-33.2h19.9v33.2ZM896.7,618.6h-3.3v-3.3h-6.6v3.3h-3.3v6.6h3.3v3.3h6.6v-3.3h3.3v-6.6Z"/>
      <path class="st21" d="M919.9,618.6h-3.3v3.3h-6.6v3.3h-3.3v3.3h-3.3v3.3h-3.3v-19.9h19.9v6.6ZM916.6,635.2v3.3h-3.3v3.3h-3.3v3.3h-9.9v-6.6h6.6v-3.3h9.9ZM913.3,628.6v3.3h-3.3v-3.3h3.3ZM919.9,625.3h-3.3v-3.3h3.3v3.3ZM916.6,635.2v-3.3h3.3v3.3h-3.3Z"/>
      <path class="st21" d="M939.8,618.6h-3.3v-3.3h-3.3v3.3h-9.9v10h3.3v3.3h3.3v-6.6h3.3v16.6h3.3v-16.6h-3.3v-3.3h6.6v23.2h-19.9v-33.2h19.9v6.6Z"/>
      <path class="st18" d="M979.6,645.2h-19.9v-33.2h19.9v33.2ZM976.3,631.9h-3.3v-13.3h-3.3v-3.3h-3.3v16.6h-3.3v3.3h13.3v-3.3ZM973,641.8v-3.3h-6.6v3.3h6.6Z"/>
      <path class="st18" d="M999.5,645.2h-19.9v-33.2h19.9v33.2ZM996.2,618.6v-3.3h-3.3v3.3h-6.6v-3.3h-3.3v3.3h3.3v3.3h6.6v-3.3h3.3ZM996.2,641.8v-3.3h-3.3v-3.3h-6.6v3.3h-3.3v3.3h3.3v-3.3h6.6v3.3h3.3Z"/>
      <path class="st18" d="M1019.4,645.2h-19.9v-33.2h19.9v33.2ZM1016.1,615.3h-13.3v6.6h3.3v3.3h-3.3v6.6h3.3v3.3h-3.3v6.6h13.3v-6.6h-3.3v-3.3h3.3v-6.6h-3.3v-3.3h3.3v-6.6ZM1012.8,618.6v3.3h-6.6v-3.3h6.6ZM1012.8,625.3v6.6h-6.6v-6.6h6.6ZM1006.1,635.2h6.6v3.3h-6.6v-3.3Z"/>
      <path class="st18" d="M1039.3,621.9h-3.3v-3.3h-3.3v-3.3h-6.6v3.3h-3.3v3.3h-3.3v-9.9h19.9v9.9ZM1036,635.2v-6.6h3.3v16.6h-19.9v-16.6h3.3v6.6h3.3v6.6h6.6v-6.6h3.3ZM1032.7,621.9h3.3v6.6h-3.3v6.6h-6.6v-6.6h-3.3v-6.6h3.3v-3.3h6.6v3.3Z"/>
      <path class="st18" d="M1059.2,638.5h-3.3v3.3h-3.3v3.3h-13.3v-33.2h6.6v3.3h-3.3v3.3h3.3v-3.3h3.3v-3.3h9.9v26.5ZM1055.9,621.9v-3.3h-3.3v3.3h-3.3v3.3h-3.3v3.3h-3.3v3.3h6.6v3.3h-3.3v3.3h-3.3v3.3h3.3v-3.3h3.3v-3.3h3.3v-3.3h3.3v-3.3h-6.6v-3.3h3.3v-3.3h3.3ZM1059.2,645.2h-3.3v-3.3h3.3v3.3Z"/>
      <path class="st18" d="M1079.1,645.2h-19.9v-33.2h19.9v33.2ZM1075.8,618.6v-3.3h-3.3v3.3h-6.6v-3.3h-3.3v3.3h3.3v3.3h6.6v-3.3h3.3ZM1075.8,641.8v-3.3h-3.3v-3.3h-6.6v3.3h-3.3v3.3h3.3v-3.3h6.6v3.3h3.3Z"/>
      <path class="st18" d="M1099,645.2h-3.3v-3.3h-6.6v-19.9h3.3v3.3h3.3v-3.3h-3.3v-3.3h-3.3v3.3h-3.3v19.9h-3.3v3.3h-3.3v-33.2h19.9v33.2Z"/>
    </g>
  </g>
  <g>
    <g>
      <g>
        <rect class="st9" height="16.6" width="16.6" x="203.5" y="1907.3"/>
        <rect class="st9" height="16.6" width="16.6" x="236.7" y="1907.3"/>
        <rect class="st9" height="16.6" width="16.6" x="220.1" y="1923.9"/>
        <rect class="st9" height="16.6" width="16.6" x="269.9" y="1907.3"/>
        <rect class="st9" height="16.6" width="16.6" x="253.3" y="1923.9"/>
        <rect class="st9" height="16.6" width="16.6" x="137.2" y="1907.3"/>
        <rect class="st9" height="16.6" width="16.6" x="170.4" y="1907.3"/>
        <rect class="st9" height="16.6" width="16.6" x="153.8" y="1923.9"/>
        <rect class="st9" height="16.6" width="16.6" x="104" y="1907.3"/>
        <rect class="st9" height="16.6" width="16.6" x="137.2" y="1907.3"/>
        <rect class="st9" height="16.6" width="16.6" x="120.6" y="1923.9"/>
        <rect class="st9" height="16.6" width="16.6" x="203.5" y="1907.3"/>
        <rect class="st9" height="16.6" width="16.6" x="186.9" y="1923.9"/>
        <rect class="st9" height="16.6" width="16.6" x="303" y="1907.3"/>
        <rect class="st9" height="16.6" width="16.6" x="286.4" y="1923.9"/>
        <rect class="st9" height="16.6" width="16.6" x="336.2" y="1907.3"/>
        <rect class="st9" height="16.6" width="16.6" x="319.6" y="1923.9"/>
        <rect class="st9" height="16.6" width="16.6" x="369.4" y="1907.3"/>
        <rect class="st9" height="16.6" width="16.6" x="352.8" y="1923.9"/>
        <rect class="st9" height="16.6" width="16.6" x="402.5" y="1907.3"/>
        <rect class="st9" height="16.6" width="16.6" x="385.9" y="1923.9"/>
        <rect class="st9" height="16.6" width="16.6" x="419.1" y="1923.9"/>
      </g>
      <g>
        <rect class="st9" height="16.6" width="16.6" x="435.7" y="1907.3"/>
        <rect class="st9" height="16.6" width="16.6" x="419.1" y="1923.9"/>
        <rect class="st9" height="16.6" width="16.6" x="468.8" y="1907.3"/>
        <rect class="st9" height="16.6" width="16.6" x="452.3" y="1923.9"/>
        <rect class="st9" height="16.6" width="16.6" x="502" y="1907.3"/>
        <rect class="st9" height="16.6" width="16.6" x="485.4" y="1923.9"/>
        <rect class="st9" height="16.6" width="16.6" x="535.2" y="1907.3"/>
        <rect class="st9" height="16.6" width="16.6" x="518.6" y="1923.9"/>
        <rect class="st9" height="16.6" width="16.6" x="568.3" y="1907.3"/>
        <rect class="st9" height="16.6" width="16.6" x="551.8" y="1923.9"/>
        <rect class="st9" height="16.6" width="16.6" x="601.5" y="1907.3"/>
        <rect class="st9" height="16.6" width="16.6" x="584.9" y="1923.9"/>
        <rect class="st9" height="16.6" width="16.6" x="634.7" y="1907.3"/>
        <rect class="st9" height="16.6" width="16.6" x="618.1" y="1923.9"/>
        <rect class="st9" height="16.6" width="16.6" x="667.8" y="1907.3"/>
        <rect class="st9" height="16.6" width="16.6" x="651.3" y="1923.9"/>
        <rect class="st9" height="16.6" width="16.6" x="684.4" y="1923.9"/>
      </g>
    </g>
    <g>
      <g>
        <rect class="st18" height="16.6" width="16.6" x="1099" y="1907.3"/>
        <rect class="st18" height="16.6" width="16.6" x="1132.2" y="1907.3"/>
        <rect class="st18" height="16.6" width="16.6" x="1115.6" y="1923.9"/>
        <rect class="st18" height="16.6" width="16.6" x="1165.3" y="1907.3"/>
        <rect class="st18" height="16.6" width="16.6" x="1148.7" y="1923.9"/>
        <rect class="st18" height="16.6" width="16.6" x="1198.5" y="1907.3"/>
        <rect class="st18" height="16.6" width="16.6" x="1181.9" y="1923.9"/>
        <rect class="st18" height="16.6" width="16.6" x="1231.7" y="1907.3"/>
        <rect class="st18" height="16.6" width="16.6" x="1215.1" y="1923.9"/>
        <rect class="st18" height="16.6" width="16.6" x="1264.8" y="1907.3"/>
        <rect class="st18" height="16.6" width="16.6" x="1248.2" y="1923.9"/>
        <rect class="st18" height="16.6" width="16.6" x="1298" y="1907.3"/>
        <rect class="st18" height="16.6" width="16.6" x="1281.4" y="1923.9"/>
        <rect class="st18" height="16.6" width="16.6" x="1314.6" y="1923.9"/>
      </g>
      <g>
        <rect class="st18" height="16.6" width="16.6" x="1331.2" y="1907.3"/>
        <rect class="st18" height="16.6" width="16.6" x="1314.6" y="1923.9"/>
        <rect class="st18" height="16.6" width="16.6" x="1364.3" y="1907.3"/>
        <rect class="st18" height="16.6" width="16.6" x="1347.7" y="1923.9"/>
        <rect class="st18" height="16.6" width="16.6" x="1397.5" y="1907.3"/>
        <rect class="st18" height="16.6" width="16.6" x="1380.9" y="1923.9"/>
        <rect class="st18" height="16.6" width="16.6" x="1430.6" y="1907.3"/>
        <rect class="st18" height="16.6" width="16.6" x="1414.1" y="1923.9"/>
        <rect class="st18" height="16.6" width="16.6" x="1463.8" y="1907.3"/>
        <rect class="st18" height="16.6" width="16.6" x="1447.2" y="1923.9"/>
        <rect class="st18" height="16.6" width="16.6" x="1497" y="1907.3"/>
        <rect class="st18" height="16.6" width="16.6" x="1480.4" y="1923.9"/>
        <rect class="st18" height="16.6" width="16.6" x="1530.1" y="1907.3"/>
        <rect class="st18" height="16.6" width="16.6" x="1513.6" y="1923.9"/>
        <rect class="st18" height="16.6" width="16.6" x="1563.3" y="1907.3"/>
        <rect class="st18" height="16.6" width="16.6" x="1546.7" y="1923.9"/>
        <rect class="st18" height="16.6" width="16.6" x="1579.9" y="1923.9"/>
        <rect class="st18" height="16.6" width="16.6" x="1596.5" y="1907.3"/>
        <rect class="st18" height="16.6" width="16.6" x="1579.9" y="1923.9"/>
        <rect class="st18" height="16.6" width="16.6" x="1629.6" y="1907.3"/>
        <rect class="st18" height="16.6" width="16.6" x="1613.1" y="1923.9"/>
        <rect class="st18" height="16.6" width="16.6" x="1662.8" y="1907.3"/>
        <rect class="st18" height="16.6" width="16.6" x="1646.2" y="1923.9"/>
        <rect class="st18" height="16.6" width="16.6" x="1679.4" y="1923.9"/>
      </g>
    </g>
    <g>
      <path class="st9" d="M714.3,1910.6v3.3h-6.6v-3.3h-6.6v-3.3h19.9v3.3h-6.6ZM714.3,1917.2v-3.3h6.6v10h-3.3v-3.3h-6.6v3.3h-6.6v-3.3h-3.3v-6.6h6.6v3.3h6.6ZM711,1923.9h6.6v3.3h3.3v6.6h-6.6v-3.3h-6.6v3.3h-6.6v-9.9h3.3v3.3h6.6v-3.3ZM707.6,1933.8h6.6v3.3h6.6v3.3h-19.9v-3.3h6.6v-3.3Z"/>
      <path class="st9" d="M740.8,1933.8h-3.3v3.3h-3.3v3.3h-13.3v-33.2h6.6v3.3h-3.3v3.3h3.3v-3.3h3.3v-3.3h9.9v26.5ZM737.5,1917.2v-3.3h-3.3v3.3h-3.3v3.3h-3.3v3.3h-3.3v3.3h6.6v3.3h-3.3v3.3h-3.3v3.3h3.3v-3.3h3.3v-3.3h3.3v-3.3h3.3v-3.3h-6.6v-3.3h3.3v-3.3h3.3ZM740.8,1940.5h-3.3v-3.3h3.3v3.3Z"/>
      <path class="st9" d="M757.4,1907.3h3.3v6.6h-6.6v3.3h6.6v10h-6.6v3.3h6.6v9.9h-19.9v-3.3h6.6v-3.3h-6.6v-9.9h6.6v-3.3h-6.6v-9.9h6.6v-3.3h3.3v3.3h6.6v-3.3ZM750.8,1913.9h-6.6v3.3h6.6v-3.3ZM750.8,1927.2h-6.6v3.3h6.6v-3.3ZM757.4,1920.6h-6.6v3.3h6.6v-3.3ZM757.4,1933.8h-6.6v3.3h6.6v-3.3Z"/>
      <path class="st9" d="M780.6,1913.9h-3.3v-3.3h-3.3v3.3h-9.9v10h3.3v3.3h3.3v-6.6h3.3v16.6h3.3v-16.6h-3.3v-3.3h6.6v23.2h-19.9v-33.2h19.9v6.6Z"/>
      <path class="st9" d="M800.5,1940.5h-19.9v-33.2h19.9v33.2ZM797.2,1910.6h-13.3v6.6h3.3v3.3h-3.3v6.6h3.3v3.3h-3.3v6.6h13.3v-6.6h-3.3v-3.3h3.3v-6.6h-3.3v-3.3h3.3v-6.6ZM793.9,1913.9v3.3h-6.6v-3.3h6.6ZM793.9,1920.6v6.6h-6.6v-6.6h6.6ZM787.2,1930.5h6.6v3.3h-6.6v-3.3Z"/>
      <path class="st3" d="M840.3,1940.5h-3.3v-3.3h-3.3v-3.3h-6.6v3.3h-3.3v3.3h-3.3v-33.2h19.9v33.2ZM837,1913.9h-3.3v-3.3h-6.6v3.3h-3.3v6.6h3.3v3.3h6.6v-3.3h3.3v-6.6Z"/>
      <path class="st3" d="M860.2,1933.8h-3.3v3.3h-3.3v3.3h-13.3v-33.2h6.6v3.3h-3.3v3.3h3.3v-3.3h3.3v-3.3h9.9v26.5ZM856.9,1917.2v-3.3h-3.3v3.3h-3.3v3.3h-3.3v3.3h-3.3v3.3h6.6v3.3h-3.3v3.3h-3.3v3.3h3.3v-3.3h3.3v-3.3h3.3v-3.3h3.3v-3.3h-6.6v-3.3h3.3v-3.3h3.3ZM860.2,1940.5h-3.3v-3.3h3.3v3.3Z"/>
      <path class="st21" d="M900,1940.5h-3.3v-3.3h-3.3v-3.3h-6.6v3.3h-3.3v3.3h-3.3v-33.2h19.9v33.2ZM896.7,1913.9h-3.3v-3.3h-6.6v3.3h-3.3v6.6h3.3v3.3h6.6v-3.3h3.3v-6.6Z"/>
      <path class="st21" d="M919.9,1913.9h-3.3v3.3h-6.6v3.3h-3.3v3.3h-3.3v3.3h-3.3v-19.9h19.9v6.6ZM916.6,1930.5v3.3h-3.3v3.3h-3.3v3.3h-9.9v-6.6h6.6v-3.3h9.9ZM913.3,1923.9v3.3h-3.3v-3.3h3.3ZM919.9,1920.6h-3.3v-3.3h3.3v3.3ZM916.6,1930.5v-3.3h3.3v3.3h-3.3Z"/>
      <path class="st21" d="M939.8,1913.9h-3.3v-3.3h-3.3v3.3h-9.9v10h3.3v3.3h3.3v-6.6h3.3v16.6h3.3v-16.6h-3.3v-3.3h6.6v23.2h-19.9v-33.2h19.9v6.6Z"/>
      <path class="st18" d="M979.6,1940.5h-19.9v-33.2h19.9v33.2ZM976.3,1927.2h-3.3v-13.3h-3.3v-3.3h-3.3v16.6h-3.3v3.3h13.3v-3.3ZM973,1937.1v-3.3h-6.6v3.3h6.6Z"/>
      <path class="st18" d="M999.5,1940.5h-19.9v-33.2h19.9v33.2ZM996.2,1913.9v-3.3h-3.3v3.3h-6.6v-3.3h-3.3v3.3h3.3v3.3h6.6v-3.3h3.3ZM996.2,1937.1v-3.3h-3.3v-3.3h-6.6v3.3h-3.3v3.3h3.3v-3.3h6.6v3.3h3.3Z"/>
      <path class="st18" d="M1019.4,1940.5h-19.9v-33.2h19.9v33.2ZM1016.1,1910.6h-13.3v6.6h3.3v3.3h-3.3v6.6h3.3v3.3h-3.3v6.6h13.3v-6.6h-3.3v-3.3h3.3v-6.6h-3.3v-3.3h3.3v-6.6ZM1012.8,1913.9v3.3h-6.6v-3.3h6.6ZM1012.8,1920.6v6.6h-6.6v-6.6h6.6ZM1006.1,1930.5h6.6v3.3h-6.6v-3.3Z"/>
      <path class="st18" d="M1039.3,1917.2h-3.3v-3.3h-3.3v-3.3h-6.6v3.3h-3.3v3.3h-3.3v-9.9h19.9v9.9ZM1036,1930.5v-6.6h3.3v16.6h-19.9v-16.6h3.3v6.6h3.3v6.6h6.6v-6.6h3.3ZM1032.7,1917.2h3.3v6.6h-3.3v6.6h-6.6v-6.6h-3.3v-6.6h3.3v-3.3h6.6v3.3Z"/>
      <path class="st18" d="M1059.2,1933.8h-3.3v3.3h-3.3v3.3h-13.3v-33.2h6.6v3.3h-3.3v3.3h3.3v-3.3h3.3v-3.3h9.9v26.5ZM1055.9,1917.2v-3.3h-3.3v3.3h-3.3v3.3h-3.3v3.3h-3.3v3.3h6.6v3.3h-3.3v3.3h-3.3v3.3h3.3v-3.3h3.3v-3.3h3.3v-3.3h3.3v-3.3h-6.6v-3.3h3.3v-3.3h3.3ZM1059.2,1940.5h-3.3v-3.3h3.3v3.3Z"/>
      <path class="st18" d="M1079.1,1940.5h-19.9v-33.2h19.9v33.2ZM1075.8,1913.9v-3.3h-3.3v3.3h-6.6v-3.3h-3.3v3.3h3.3v3.3h6.6v-3.3h3.3ZM1075.8,1937.1v-3.3h-3.3v-3.3h-6.6v3.3h-3.3v3.3h3.3v-3.3h6.6v3.3h3.3Z"/>
      <path class="st18" d="M1099,1940.5h-3.3v-3.3h-6.6v-19.9h3.3v3.3h3.3v-3.3h-3.3v-3.3h-3.3v3.3h-3.3v19.9h-3.3v3.3h-3.3v-33.2h19.9v33.2Z"/>
    </g>
  </g>
</svg>