<svg xmlns="http://www.w3.org/2000/svg" viewBox="0 0 300 300">
    <!-- Purple background rectangle -->
    <rect width="300" height="300" fill="#5D3FD3"/>
    
    <!-- W path with white fill inside -->
    <g transform="translate(0.000000,300.000000) scale(0.100000,-0.100000)"
    fill="#FFFFFF" stroke="none" fill-rule="evenodd">
    <path d="M660 2077 c-55 -14 -53 -35 30 -312 65 -217 68 -225 90 -310 12 -44
    25 -89 30 -100 5 -11 10 -29 13 -40 20 -86 141 -474 153 -492 8 -13 21 -23 29
    -23 8 0 15 -3 15 -7 0 -5 68 -7 152 -6 199 2 190 -5 245 184 24 79 43 154 43
    166 0 12 5 25 10 28 5 3 10 17 10 30 0 18 4 22 20 18 11 -3 21 -13 22 -22 2
    -30 4 -36 9 -46 9 -16 63 -207 74 -262 8 -41 56 -93 87 -94 12 0 84 0 158 0
    164 0 172 5 204 106 31 96 53 173 61 215 4 19 11 40 15 45 6 8 20 56 20 67 0
    2 9 32 21 68 11 36 28 94 38 130 11 36 33 115 51 175 17 61 33 117 35 125 2 8
    20 66 40 128 20 62 38 134 41 160 9 71 -2 75 -220 73 -144 -1 -185 -4 -204
    -17 -12 -8 -24 -21 -26 -27 -7 -26 -28 -113 -31 -127 -2 -8 -10 -40 -19 -71
    -9 -31 -19 -67 -22 -80 -3 -13 -7 -31 -9 -39 -2 -8 -4 -22 -4 -32 -1 -10 -7
    -15 -19 -11 -14 3 -25 31 -46 116 -15 62 -32 128 -37 147 -6 19 -14 50 -17 69
    -13 63 -36 71 -219 73 l-163 3 -25 -26 c-26 -25 -36 -56 -99 -299 -29 -114
    -44 -113 -73 5 -13 50 -27 106 -32 125 -40 144 -47 164 -66 176 -23 15 -336
    24 -385 11z m442 -287 c37 -140 68 -263 68 -272 0 -10 5 -18 10 -18 6 0 10 6
    10 13 0 11 118 461 136 520 5 15 22 17 177 17 l172 0 21 -83 c12 -45 43 -169
    70 -274 27 -106 51 -193 54 -193 3 0 22 69 44 153 21 83 53 207 70 274 l31
    123 196 0 197 0 -54 -182 c-29 -101 -111 -378 -180 -615 l-127 -433 -168 0
    -168 0 -15 53 c-94 329 -136 483 -136 499 0 10 -4 18 -10 18 -5 0 -10 -8 -10
    -18 0 -14 -109 -414 -146 -534 -5 -16 -22 -18 -173 -18 l-168 0 -137 468 c-75
    257 -156 533 -180 615 l-44 147 196 -2 196 -3 68 -255z"/>
    </g>
</svg>